# xmcd
#
# Track frame offsets:
#	150
#	14732
#	33142
#
# Disc length: 694 seconds
#
# Revision: 0
# Processed by: cddbd v1.5.2PL0 Copyright (c) Steve Scherf et al.
# Submitted via: audiograbber 1.83.01
#
DISCID=1b02b403
DTITLE=Lisa Angelle - Single
DYEAR=1999
DGENRE=Country
TTITLE0=I Wear Your Love
TTITLE1=Midnight Rodeo
TTITLE2=I Wear Your Love (Dance Mix)
EXTD=
EXTT0=
EXTT1=
EXTT2=
PLAYORDER=
